<?xml version="1.0" encoding="UTF-8" standalone="no"?>
<!-- Created with Inkscape (http://www.inkscape.org/) -->

<svg
   xmlns:dc="http://purl.org/dc/elements/1.1/"
   xmlns:cc="http://creativecommons.org/ns#"
   xmlns:rdf="http://www.w3.org/1999/02/22-rdf-syntax-ns#"
   xmlns:svg="http://www.w3.org/2000/svg"
   xmlns="http://www.w3.org/2000/svg"
   xmlns:sodipodi="http://sodipodi.sourceforge.net/DTD/sodipodi-0.dtd"
   xmlns:inkscape="http://www.inkscape.org/namespaces/inkscape"
   width="147.42857"
   height="147.42857"
   id="svg2"
   version="1.1"
   inkscape:version="0.48.4 r9939"
   sodipodi:docname="dielectric.svg">
  <defs
     id="defs4">
    <inkscape:path-effect
       effect="spiro"
       id="path-effect3005"
       is_visible="true" />
  </defs>
  <sodipodi:namedview
     id="base"
     pagecolor="#ffffff"
     bordercolor="#666666"
     borderopacity="1.0"
     inkscape:pageopacity="0.0"
     inkscape:pageshadow="2"
     inkscape:zoom="2.8"
     inkscape:cx="214.10238"
     inkscape:cy="64.693731"
     inkscape:document-units="px"
     inkscape:current-layer="layer1"
     showgrid="false"
     inkscape:snap-midpoints="false"
     fit-margin-top="0"
     fit-margin-left="0"
     fit-margin-right="0"
     fit-margin-bottom="0"
     inkscape:window-width="1280"
     inkscape:window-height="722"
     inkscape:window-x="0"
     inkscape:window-y="26"
     inkscape:window-maximized="1" />
  <metadata
     id="metadata7">
    <rdf:RDF>
      <cc:Work
         rdf:about="">
        <dc:format>image/svg+xml</dc:format>
        <dc:type
           rdf:resource="http://purl.org/dc/dcmitype/StillImage" />
        <dc:title></dc:title>
      </cc:Work>
    </rdf:RDF>
  </metadata>
  <g
     inkscape:label="Layer 1"
     inkscape:groupmode="layer"
     id="layer1"
     transform="translate(-93.78572,-107.93361)">
    <path
       style="fill:none;stroke:#000000;stroke-width:1px;stroke-linecap:butt;stroke-linejoin:miter;stroke-opacity:1"
       d="m 156.78572,146.6479 c 0,0 29.64286,-24.28572 32.85714,8.21428 3.21429,32.5 8.92857,35.35715 -0.71428,50 -9.64286,14.64286 -31.42858,26.42857 -38.57143,13.57143 -7.14286,-12.85714 -22.5,-31.42857 -15.71429,-44.28571 6.78572,-12.85715 22.14286,-27.5 22.14286,-27.5 z"
       id="path3011"
       inkscape:connector-curvature="0" />
    <path
       style="fill:#ffe6d5;fill-opacity:1;stroke-width:1;stroke-miterlimit:4;stroke-dasharray:1, 2;stroke-dashoffset:0"
       d="m 157.18266,223.02971 c -3.04825,-0.84158 -4.83758,-2.40604 -7.04311,-6.15799 -0.77941,-1.3259 -2.13845,-3.5759 -3.02009,-5 -8.38,-13.5361 -10.39074,-17.3112 -12.14701,-22.80553 -1.09811,-3.43536 -1.27097,-4.48691 -1.27075,-7.73019 1.9e-4,-2.58378 0.0515,-3.11127 0.41657,-4.28571 1.76964,-5.69227 11.72762,-18.80194 21.57182,-28.39927 6.08979,-5.93708 16.11142,-10.58607 21.76043,-10.09459 2.88073,0.25064 4.62854,1.05452 6.61126,3.04076 1.61752,1.6204 2.56915,3.24755 3.46749,5.9289 0.90352,2.69683 1.15935,4.15047 1.89007,10.73955 0.55537,5.0079 1.38803,10.83434 2.76109,19.32036 1.37286,8.48482 1.49678,9.65621 1.37775,13.02346 -0.13454,3.80576 -0.70947,5.90798 -2.64774,9.68139 -5.35384,10.42283 -16.08816,19.56337 -26.31707,22.40961 -2.08047,0.5789 -5.89293,0.74829 -7.41071,0.32925 z"
       id="path3015"
       inkscape:connector-curvature="0" />
    <path
       sodipodi:type="arc"
       style="fill:none;stroke:#000000;stroke-width:1;stroke-miterlimit:4;stroke-opacity:1;stroke-dasharray:8, 4;stroke-dashoffset:0"
       id="path3017"
       sodipodi:cx="186.78572"
       sodipodi:cy="189.50504"
       sodipodi:rx="73.214287"
       sodipodi:ry="73.214287"
       d="m 260.00001,189.50504 c 0,40.43513 -32.77916,73.21428 -73.21429,73.21428 -40.43513,0 -73.21429,-32.77915 -73.21429,-73.21428 0,-40.43514 32.77916,-73.21429 73.21429,-73.21429 40.43513,0 73.21429,32.77915 73.21429,73.21429 z"
       transform="translate(-19.285714,-7.8571427)" />
    <path
       sodipodi:type="arc"
       style="fill:none;stroke:#000000;stroke-width:1;stroke-miterlimit:4;stroke-opacity:1;stroke-dasharray:8, 4;stroke-dashoffset:0"
       id="path3017-4"
       sodipodi:cx="186.78572"
       sodipodi:cy="189.50504"
       sodipodi:rx="73.214287"
       sodipodi:ry="73.214287"
       d="m 260.00001,189.50504 c 0,40.43513 -32.77916,73.21428 -73.21429,73.21428 -40.43513,0 -73.21429,-32.77915 -73.21429,-73.21428 0,-40.43514 32.77916,-73.21429 73.21429,-73.21429 40.43513,0 73.21429,32.77915 73.21429,73.21429 z"
       transform="matrix(0.61967055,0,0,0.61967055,52.504404,63.467209)" />
    <text
       xml:space="preserve"
       style="font-size:40px;font-style:normal;font-weight:normal;line-height:125%;letter-spacing:0px;word-spacing:0px;fill:#000000;fill-opacity:1;stroke:none;font-family:Sans"
       x="208.78572"
       y="158.57648"
       id="text3805"
       sodipodi:linespacing="125%"><tspan
         sodipodi:role="line"
         id="tspan3807"
         x="208.78572"
         y="158.57648"
         style="font-size:12px">$R_0$</tspan></text>
    <text
       xml:space="preserve"
       style="font-size:40px;font-style:normal;font-weight:normal;line-height:125%;letter-spacing:0px;word-spacing:0px;fill:#000000;fill-opacity:1;stroke:none;font-family:Sans"
       x="207.71429"
       y="118.57647"
       id="text3809"
       sodipodi:linespacing="125%"><tspan
         sodipodi:role="line"
         id="tspan3811"
         x="207.71429"
         y="118.57647"
         style="font-size:12px">$R_V$</tspan></text>
    <path
       sodipodi:type="arc"
       style="fill:none;stroke:#000000;stroke-width:1;stroke-miterlimit:4;stroke-opacity:1;stroke-dasharray:8, 4;stroke-dashoffset:0"
       id="path3017-4-8"
       sodipodi:cx="186.78572"
       sodipodi:cy="189.50504"
       sodipodi:rx="73.214287"
       sodipodi:ry="73.214287"
       d="m 260.00001,189.50504 a 73.214287,73.214287 0 1 1 -146.42858,0 73.214287,73.214287 0 1 1 146.42858,0 z"
       transform="matrix(0.38953489,0,0,0.38953489,91.561879,109.57907)" />
    <text
       xml:space="preserve"
       style="font-size:40px;font-style:normal;font-weight:normal;line-height:125%;letter-spacing:0px;word-spacing:0px;fill:#000000;fill-opacity:1;stroke:none;font-family:Sans"
       x="158.72728"
       y="166.72003"
       id="text3805-5"
       sodipodi:linespacing="125%"><tspan
         sodipodi:role="line"
         id="tspan3807-6"
         x="158.72728"
         y="166.72003"
         style="font-size:12px">$r_0$</tspan></text>
  </g>
</svg>
